<?xml version="1.0" encoding="UTF-8"?>
<svg width="24px" height="24px" viewBox="0 0 24 24" version="1.1" xmlns="http://www.w3.org/2000/svg" xmlns:xlink="http://www.w3.org/1999/xlink">
    <title>Artboard</title>
    <g id="Artboard" stroke="none" stroke-width="1" fill="none" fill-rule="evenodd">
        <g id="Group-7" transform="translate(2.000000, 2.000000)" fill="#C6C6C6">
            <path d="M18.6076225,0.626597169 L19.1727895,1.21460775 C19.6177794,1.67880147 19.6177794,2.41125457 19.1727895,2.8754483 L12.2973023,10.0458531 L19.1727895,17.2182527 C19.6177794,17.6824465 19.6177794,18.4148996 19.1727895,18.8790933 L18.6434598,19.4312666 C18.1848313,19.9096874 17.4252028,19.9257323 16.946782,19.4671039 L10.1063023,12.3328531 L3.30188956,19.4312666 C2.84326111,19.9096874 2.08363257,19.9257323 1.60521172,19.4671039 L1.04004469,18.8790933 C0.595054776,18.4148996 0.595054776,17.6824465 1.04004469,17.2182527 L7.91430225,10.0468531 L1.04004469,2.8754483 C0.595054776,2.41125457 0.595054776,1.67880147 1.04004469,1.21460775 L1.56937443,0.66243446 C2.02800289,0.184013617 2.78763143,0.167968716 3.26605227,0.626597169 L10.1063023,7.75985306 L16.9109447,0.66243446 C17.3695731,0.184013617 18.1292017,0.167968716 18.6076225,0.626597169 Z" id="Path"></path>
        </g>
    </g>
</svg>