<svg xmlns="http://www.w3.org/2000/svg" xmlns:xlink="http://www.w3.org/1999/xlink" viewBox="0 0 24 24"><defs><style>.a{fill:none;}.b{fill:#6c6c6c;fill-rule:evenodd;}.c{clip-path:url(#a);}.d{clip-path:url(#b);}.e{clip-path:url(#c);}</style><clipPath id="a"><path class="a" d="M-55.25-135.06a8,8,0,0,0-8-8,8,8,0,0,0-8,8,8,8,0,0,0,6.75,7.9v-5.59h-2v-2.31h2v-1.76a2.82,2.82,0,0,1,3-3.11,12.93,12.93,0,0,1,1.8.15v2h-1A1.16,1.16,0,0,0-62-136.56v1.5h2.22l-.35,2.31H-62v5.59A8,8,0,0,0-55.25-135.06Z"/></clipPath><clipPath id="b"><path class="a" d="M-60.13-132.75l.35-2.31H-62v-1.5a1.16,1.16,0,0,1,1.31-1.25h1v-2a12.93,12.93,0,0,0-1.8-.15,2.82,2.82,0,0,0-3,3.11v1.76h-2v2.31h2v5.59a8.06,8.06,0,0,0,2.5,0v-5.59Z"/></clipPath><clipPath id="c"><path class="a" d="M-101-126.06a11.42,11.42,0,0,0,11.49-11.5c0-.17,0-.34,0-.52a8,8,0,0,0,2-2.09,8.17,8.17,0,0,1-2.32.64,4.07,4.07,0,0,0,1.77-2.24,8.13,8.13,0,0,1-2.56,1,4.05,4.05,0,0,0-5.72-.17,4.05,4.05,0,0,0-1.17,3.86,11.49,11.49,0,0,1-8.33-4.22,4,4,0,0,0,1.25,5.39,4.08,4.08,0,0,1-1.84-.5v.05a4,4,0,0,0,3.24,4,4,4,0,0,1-1.82.07,4,4,0,0,0,3.77,2.8,8.12,8.12,0,0,1-5,1.73,7.77,7.77,0,0,1-1-.06,11.51,11.51,0,0,0,6.21,1.82"/></clipPath></defs><path class="b" d="M12,3A9.27,9.27,0,0,0,9.07,21c.46.09.63-.2.63-.44s0-.81,0-1.58c-2.58.56-3.12-1.24-3.12-1.24a2.42,2.42,0,0,0-1-1.36c-.84-.57.06-.56.06-.56A1.93,1.93,0,0,1,7,16.79a2,2,0,0,0,2.7.77,2,2,0,0,1,.59-1.24c-2.06-.23-4.22-1-4.22-4.58A3.55,3.55,0,0,1,7,9.26,3.41,3.41,0,0,1,7.13,6.8s.78-.25,2.55,1a8.91,8.91,0,0,1,4.64,0c1.77-1.2,2.55-1,2.55-1A3.37,3.37,0,0,1,17,9.26a3.6,3.6,0,0,1,1,2.48c0,3.56-2.17,4.35-4.23,4.58A2.2,2.2,0,0,1,14.32,18c0,1.24,0,2.24,0,2.54s.16.54.63.45A9.27,9.27,0,0,0,12,3Z"/></svg>