<?xml version="1.0" encoding="UTF-8"?>
<svg width="14px" height="26px" viewBox="0 0 14 26" version="1.1" xmlns="http://www.w3.org/2000/svg" xmlns:xlink="http://www.w3.org/1999/xlink">
    <title>Path</title>
    <g id="FINAL" stroke="none" stroke-width="1" fill="none" fill-rule="evenodd">
        <g id="KTXIO_7h" transform="translate(-1211.000000, -1107.000000)" fill="#CACACA">
            <path d="M1224.46049,1107.96599 C1224.65777,1108.27186 1224.7568,1108.632 1224.7568,1109.04603 C1224.7568,1109.37322 1224.71236,1109.68995 1224.62502,1109.99504 C1224.53691,1110.30091 1224.38329,1110.57344 1224.16417,1110.81302 C1224.07645,1110.94405 1223.92244,1111.11346 1223.70372,1111.32048 C1223.48382,1111.52788 1223.18789,1111.81708 1222.81477,1112.18769 C1221.89347,1112.9514 1221.02129,1113.75853 1220.19862,1114.60907 C1219.37557,1115.45961 1218.5802,1116.35474 1217.81251,1117.29251 C1217.54934,1117.59799 1217.28616,1117.91394 1217.0226,1118.24113 C1216.75942,1118.56871 1216.55044,1118.90715 1216.39761,1119.25566 C1216.2436,1119.60495 1216.17186,1119.97556 1216.18356,1120.36866 C1216.19409,1120.76098 1216.35316,1121.16493 1216.66039,1121.57934 C1217.20896,1122.34305 1217.79068,1123.0738 1218.40475,1123.77161 C1219.01882,1124.47019 1219.67734,1125.15713 1220.37953,1125.83323 C1220.79632,1126.26974 1221.21896,1126.6954 1221.64628,1127.10943 C1222.07438,1127.52424 1222.4861,1127.93865 1222.88066,1128.35268 C1223.4074,1128.87642 1223.72477,1129.42769 1223.83511,1130.00531 C1223.94467,1130.58371 1223.88969,1131.09078 1223.67058,1131.52691 C1223.45107,1131.96304 1223.09471,1132.27937 1222.60111,1132.47592 C1222.10713,1132.67247 1221.51995,1132.63952 1220.84038,1132.37784 C1220.48909,1132.2251 1220.1495,1132.02274 1219.82004,1131.77269 C1219.49098,1131.52187 1219.17283,1131.2381 1218.86599,1130.92137 C1218.55837,1130.60581 1218.26205,1130.28366 1217.97704,1129.95608 C1217.69165,1129.62889 1217.42847,1129.32379 1217.18713,1129.04002 C1213.06212,1124.52407 1211,1121.53554 1211,1120.07403 C1211,1118.96142 1211.80044,1117.34717 1213.40249,1115.23089 C1214.01656,1114.46757 1214.69692,1113.66587 1215.44277,1112.8258 C1216.18863,1111.98611 1217.0226,1111.15146 1217.9439,1110.32223 C1218.51431,1109.75546 1219.10109,1109.19334 1219.70503,1108.63704 C1220.30818,1108.08074 1220.97177,1107.60662 1221.69579,1107.21352 C1222.00264,1107.06117 1222.33794,1106.99023 1222.69976,1107.00108 C1223.06157,1107.01194 1223.39609,1107.09916 1223.70372,1107.26276 C1224.01056,1107.42635 1224.26282,1107.66089 1224.46049,1107.96599" id="Path" transform="translate(1217.878402, 1119.801114) scale(-1, 1) translate(-1217.878402, -1119.801114) "></path>
        </g>
    </g>
</svg>