<?xml version="1.0" encoding="UTF-8"?>
<svg width="14px" height="26px" viewBox="0 0 14 26" version="1.1" xmlns="http://www.w3.org/2000/svg" xmlns:xlink="http://www.w3.org/1999/xlink">
    <title>Path</title>
    <g id="FINAL" stroke="none" stroke-width="1" fill="none" fill-rule="evenodd">
        <g id="KTXIO_4h" transform="translate(-140.000000, -1107.000000)" fill="#CACACA">
            <path d="M153.460489,1107.96599 C153.657772,1108.27186 153.756804,1108.632 153.756804,1109.04603 C153.756804,1109.37322 153.712356,1109.68995 153.625021,1109.99504 C153.536907,1110.30091 153.383291,1110.57344 153.164174,1110.81302 C153.076449,1110.94405 152.922444,1111.11346 152.703716,1111.32048 C152.48382,1111.52788 152.187895,1111.81708 151.814772,1112.18769 C150.893467,1112.9514 150.021288,1113.75853 149.198624,1114.60907 C148.375571,1115.45961 147.5802,1116.35474 146.812511,1117.29251 C146.549336,1117.59799 146.286162,1117.91394 146.022598,1118.24113 C145.759424,1118.56871 145.550444,1118.90715 145.397608,1119.25566 C145.243602,1119.60495 145.171863,1119.97556 145.183559,1120.36866 C145.194086,1120.76098 145.35316,1121.16493 145.660392,1121.57934 C146.208964,1122.34305 146.790677,1123.0738 147.40475,1123.77161 C148.018824,1124.47019 148.677344,1125.15713 149.379532,1125.83323 C149.796323,1126.26974 150.218961,1126.6954 150.646278,1127.10943 C151.074375,1127.52424 151.486097,1127.93865 151.880663,1128.35268 C152.407402,1128.87642 152.72477,1129.42769 152.835109,1130.00531 C152.944667,1130.58371 152.889693,1131.09078 152.670576,1131.52691 C152.451069,1131.96304 152.094712,1132.27937 151.601114,1132.47592 C151.107126,1132.67247 150.519954,1132.63952 149.84038,1132.37784 C149.489091,1132.2251 149.149499,1132.02274 148.820043,1131.77269 C148.490978,1131.52187 148.172829,1131.2381 147.865988,1130.92137 C147.558366,1130.60581 147.262051,1130.28366 146.977043,1129.95608 C146.691645,1129.62889 146.428471,1129.32379 146.187131,1129.04002 C142.062117,1124.52407 140,1121.53554 140,1120.07403 C140,1118.96142 140.80044,1117.34717 142.402489,1115.23089 C143.016562,1114.46757 143.696917,1113.66587 144.442772,1112.8258 C145.188628,1111.98611 146.022598,1111.15146 146.943903,1110.32223 C147.514309,1109.75546 148.10109,1109.19334 148.705026,1108.63704 C149.308183,1108.08074 149.971772,1107.60662 150.695794,1107.21352 C151.002636,1107.06117 151.337939,1106.99023 151.699755,1107.00108 C152.061571,1107.01194 152.396095,1107.09916 152.703716,1107.26276 C153.010558,1107.42635 153.262816,1107.66089 153.460489,1107.96599" id="Path"></path>
        </g>
    </g>
</svg>